<mxfile host="app.diagrams.net" agent="Mozilla/5.0 (Windows NT 10.0; Win64; x64) AppleWebKit/537.36 (KHTML, like Gecko) Chrome/130.0.0.0 Safari/537.36" version="24.8.4">
  <diagram name="Strona-1" id="lZpESUy10PnK8Dj05Oq8">
    <mxGraphModel dx="2656" dy="2160" grid="1" gridSize="10" guides="1" tooltips="1" connect="1" arrows="1" fold="1" page="1" pageScale="1" pageWidth="1169" pageHeight="827" math="0" shadow="0">
      <root>
        <mxCell id="0" />
        <mxCell id="1" parent="0" />
        <mxCell id="dlSuwosCIeABSDJj-nkc-16" value="" style="endArrow=none;dashed=1;html=1;dashPattern=1 3;strokeWidth=2;rounded=0;" edge="1" parent="1">
          <mxGeometry width="50" height="50" relative="1" as="geometry">
            <mxPoint x="350" y="-160" as="sourcePoint" />
            <mxPoint x="350" y="-480" as="targetPoint" />
          </mxGeometry>
        </mxCell>
        <mxCell id="dlSuwosCIeABSDJj-nkc-17" value="" style="endArrow=none;dashed=1;html=1;dashPattern=1 3;strokeWidth=2;rounded=0;" edge="1" parent="1">
          <mxGeometry width="50" height="50" relative="1" as="geometry">
            <mxPoint x="830" y="-150" as="sourcePoint" />
            <mxPoint x="830" y="-470" as="targetPoint" />
          </mxGeometry>
        </mxCell>
        <mxCell id="dlSuwosCIeABSDJj-nkc-18" value="&lt;font style=&quot;font-size: 18px;&quot;&gt;Wartwa prezentacji&lt;/font&gt;" style="text;html=1;align=center;verticalAlign=middle;whiteSpace=wrap;rounded=0;" vertex="1" parent="1">
          <mxGeometry x="90" y="-560" width="140" height="60" as="geometry" />
        </mxCell>
        <mxCell id="dlSuwosCIeABSDJj-nkc-19" value="&lt;font style=&quot;font-size: 18px;&quot;&gt;Warstwa logiki biznesowej&lt;/font&gt;" style="text;html=1;align=center;verticalAlign=middle;whiteSpace=wrap;rounded=0;" vertex="1" parent="1">
          <mxGeometry x="540" y="-560" width="140" height="60" as="geometry" />
        </mxCell>
        <mxCell id="dlSuwosCIeABSDJj-nkc-20" value="&lt;font style=&quot;font-size: 18px;&quot;&gt;Warstwa danych&lt;/font&gt;" style="text;html=1;align=center;verticalAlign=middle;whiteSpace=wrap;rounded=0;" vertex="1" parent="1">
          <mxGeometry x="940" y="-560" width="140" height="60" as="geometry" />
        </mxCell>
        <mxCell id="dlSuwosCIeABSDJj-nkc-29" value="" style="image;points=[];aspect=fixed;html=1;align=center;shadow=0;dashed=0;image=img/lib/allied_telesis/computer_and_terminals/Server_Desktop.svg;" vertex="1" parent="1">
          <mxGeometry x="560" y="-450" width="66.27" height="84" as="geometry" />
        </mxCell>
        <mxCell id="dlSuwosCIeABSDJj-nkc-30" value="" style="shape=datastore;whiteSpace=wrap;html=1;" vertex="1" parent="1">
          <mxGeometry x="990" y="-383.67" width="100" height="97" as="geometry" />
        </mxCell>
        <mxCell id="dlSuwosCIeABSDJj-nkc-31" value="" style="sketch=0;outlineConnect=0;fontColor=#232F3E;gradientColor=none;fillColor=#232F3D;strokeColor=none;dashed=0;verticalLabelPosition=bottom;verticalAlign=top;align=center;html=1;fontSize=12;fontStyle=0;aspect=fixed;pointerEvents=1;shape=mxgraph.aws4.globe;" vertex="1" parent="1">
          <mxGeometry x="110" y="-383.67" width="78" height="78" as="geometry" />
        </mxCell>
        <mxCell id="dlSuwosCIeABSDJj-nkc-32" value="" style="image;points=[];aspect=fixed;html=1;align=center;shadow=0;dashed=0;image=img/lib/allied_telesis/computer_and_terminals/Server_Desktop.svg;" vertex="1" parent="1">
          <mxGeometry x="560" y="-240" width="66.27" height="84" as="geometry" />
        </mxCell>
        <mxCell id="dlSuwosCIeABSDJj-nkc-35" value="&lt;font style=&quot;font-size: 12px;&quot;&gt;Aplikacja przeglądarkowa&lt;/font&gt;" style="text;html=1;align=center;verticalAlign=middle;whiteSpace=wrap;rounded=0;" vertex="1" parent="1">
          <mxGeometry x="79" y="-438" width="140" height="60" as="geometry" />
        </mxCell>
        <mxCell id="dlSuwosCIeABSDJj-nkc-36" value="API" style="text;html=1;align=center;verticalAlign=middle;whiteSpace=wrap;rounded=0;" vertex="1" parent="1">
          <mxGeometry x="543.14" y="-490" width="100" height="30" as="geometry" />
        </mxCell>
        <mxCell id="dlSuwosCIeABSDJj-nkc-37" value="&lt;font style=&quot;font-size: 12px;&quot;&gt;Moduł obsługi e-mail&lt;/font&gt;" style="text;html=1;align=center;verticalAlign=middle;whiteSpace=wrap;rounded=0;" vertex="1" parent="1">
          <mxGeometry x="470" y="-260" width="100" height="30" as="geometry" />
        </mxCell>
        <mxCell id="dlSuwosCIeABSDJj-nkc-38" value="&lt;font style=&quot;font-size: 12px;&quot;&gt;Relacyjna baza danych&lt;/font&gt;" style="text;html=1;align=center;verticalAlign=middle;whiteSpace=wrap;rounded=0;" vertex="1" parent="1">
          <mxGeometry x="990" y="-423" width="100" height="30" as="geometry" />
        </mxCell>
      </root>
    </mxGraphModel>
  </diagram>
</mxfile>
